<svg width="19" height="19" viewBox="0 0 19 19" fill="none" xmlns="http://www.w3.org/2000/svg">
<path d="M18.783 9.76523C18.9036 9.74112 19 9.64467 19 9.5C19 9.37944 18.9036 9.25888 18.783 9.23477C13.4543 8.41497 10.6091 5.5698 9.76523 0.217005C9.74112 0.0964471 9.64467 0 9.5 0C9.37944 0 9.25888 0.0964471 9.23477 0.217005C8.41497 5.54569 5.5698 8.39086 0.217004 9.23477C0.0964452 9.25888 0 9.35533 0 9.5C0 9.62056 0.0964452 9.74112 0.217004 9.76523C5.54568 10.585 8.39086 13.4302 9.23477 18.783C9.25888 18.9036 9.35533 19 9.5 19C9.62056 19 9.74112 18.9036 9.76523 18.783C10.585 13.4543 13.4302 10.6091 18.783 9.76523Z" fill="#010101"/>
</svg>
